<?xml version="1.0" encoding="UTF-8"?>
<!DOCTYPE svg PUBLIC "-//W3C//DTD SVG 1.1//EN" "http://www.w3.org/Graphics/SVG/1.1/DTD/svg11.dtd">
<!-- Creator: CorelDRAW Home & Student 2019 -->
<svg xmlns="http://www.w3.org/2000/svg" xml:space="preserve" width="118.633mm" height="34.036mm" version="1.1" style="shape-rendering:geometricPrecision; text-rendering:geometricPrecision; image-rendering:optimizeQuality; fill-rule:evenodd; clip-rule:evenodd"
viewBox="0 0 148.8415 42.7029"
 xmlns:xlink="http://www.w3.org/1999/xlink">
 <defs>
  <style type="text/css">
   <![CDATA[
    .fil0 {fill:black}
    .fil1 {fill:#0090DA}
    .fil2 {fill:white}
   ]]>
  </style>
 </defs>
 <g id="Layer_x0020_1">
  <metadata id="CorelCorpID_0Corel-Layer"/>
  <g id="_828858856">
   <polygon class="fil0" points="59.6176,16.3143 55.4916,16.3143 55.4916,19.2694 59.6176,19.2694 59.6176,23.1117 55.4916,23.1117 55.4916,35.7738 51.2866,35.7739 51.2866,23.1118 48.6943,23.1117 48.6943,19.2694 51.2866,19.2694 51.2866,12.4553 59.6176,12.4553 "/>
   <path class="fil0" d="M75.2038 31.9484l1.9127 0 0 3.8255 -5.6286 0 0 -1.6767c-1.1496,1.381 -2.7237,2.0703 -4.7272,2.0703 -1.6648,0 -3.0599,-0.5247 -4.181,-1.5741 -1.1233,-1.047 -1.6837,-2.3374 -1.6837,-3.8662 0,-1.548 0.5604,-2.8406 1.6837,-3.8733 1.1233,-1.0328 2.5162,-1.5504 4.181,-1.5504l4.2358 0 0 -2.1299 -8.9319 0 0 -3.9043 13.1368 0 0 12.679 0.0024 0zm-7.4771 0.8538c0.9685,0 1.7577,-0.2171 2.3636,-0.6486 0.6057,-0.4316 0.9087,-0.9969 0.9087,-1.691l0 -1.9128 -3.2723 -0.0001c-0.7178,0 -1.3093,0.2004 -1.7792,0.601 -0.4699,0.4007 -0.7036,0.904 -0.7036,1.5097 0,0.6059 0.2337,1.1139 0.7036,1.5264 0.4699,0.4104 1.0638,0.6155 1.7792,0.6155z"/>
   <path class="fil0" d="M89.0537 18.8735c2.2872,0 4.1975,0.8252 5.7312,2.4733 1.5335,1.6504 2.2993,3.7039 2.2993,6.1653 0,2.4614 -0.7656,4.5196 -2.2993,6.1726 -1.5335,1.6552 -3.4439,2.4828 -5.7312,2.4828 -2.2038,0 -3.9949,-0.8539 -5.3759,-2.5615l0 2.1655 -4.2048 0 0 -23.3185 4.2048 -0.0001 0 8.9797c1.381,-1.7053 3.1721,-2.5591 5.3759,-2.5591zm-4.0783 11.9038c0.8633,0.8752 1.9438,1.3119 3.2412,1.3119 1.295,0 2.3755,-0.4366 3.2412,-1.3119 0.8634,-0.8754 1.295,-1.9605 1.295,-3.2579 0,-1.295 -0.4316,-2.3827 -1.295,-3.2555 -0.8634,-0.8754 -1.9438,-1.3119 -3.2412,-1.3119 -1.2974,0 -2.3755,0.4365 -3.2412,1.3119 -0.8634,0.8752 -1.295,1.9605 -1.295,3.2555 -0.0025,1.2974 0.4292,2.3849 1.295,3.2579z"/>
   <path class="fil0" d="M116.9227 27.5526c0,0.601 -0.043,1.0757 -0.1263,1.424l-13.1201 0c0.2838,1.0541 0.8204,1.8938 1.6052,2.5208 0.7847,0.6273 1.7315,0.9397 2.8381,0.9397 0.8848,0 1.6886,-0.1836 2.4113,-0.5534 0.7227,-0.3696 1.2475,-0.842 1.5742,-1.4239l4.4885 0.0001c-0.601,1.7077 -1.6743,3.0863 -3.2174,4.1333 -1.5432,1.0494 -3.3175,1.5741 -5.3187,1.5741 -2.5306,0 -4.6437,-0.8276 -6.3393,-2.4828 -1.6958,-1.6554 -2.5449,-3.7135 -2.5449,-6.1726 0,-2.4614 0.8491,-4.5149 2.5449,-6.1653 1.6956,-1.6504 3.8064,-2.4733 6.3322,-2.4733 2.5235,0 4.6341,0.8252 6.3322,2.4733 1.6911,1.6505 2.5403,3.7184 2.5403,6.2059zm-6.1415 -4.0856c-0.7848,-0.6057 -1.6958,-0.9087 -2.7356,-0.9087 -1.0375,0 -1.9438,0.3029 -2.7189,0.9087 -0.7751,0.6057 -1.3047,1.4144 -1.5884,2.4256l8.648 0c-0.2861,-1.0111 -0.8204,-1.8197 -1.6051,-2.4256z"/>
   <path class="fil0" d="M136.6038 27.5526c0,0.601 -0.0429,1.0757 -0.1263,1.424l-13.12 0c0.2838,1.0541 0.8204,1.8938 1.6052,2.5208 0.7847,0.6272 1.7315,0.9397 2.8381,0.9397 0.8849,0 1.6886,-0.1836 2.4113,-0.5534 0.7227,-0.3696 1.2475,-0.842 1.5742,-1.4239l4.4885 0.0001c-0.601,1.7077 -1.6742,3.0863 -3.2174,4.1333 -1.5432,1.0494 -3.3175,1.5741 -5.3187,1.5741 -2.5305,0 -4.6413,-0.8276 -6.3393,-2.4828 -1.6958,-1.6554 -2.5449,-3.7135 -2.5449,-6.1726 0,-2.4614 0.8491,-4.5149 2.5449,-6.1653 1.6956,-1.6504 3.8066,-2.4733 6.3322,-2.4733 2.5235,0 4.6341,0.8252 6.3323,2.4733 1.691,1.6505 2.54,3.7184 2.54,6.2059zm-6.1415 -4.0856c-0.7847,-0.6057 -1.6956,-0.9087 -2.7356,-0.9087 -1.0375,0 -1.9438,0.3029 -2.7189,0.9087 -0.7751,0.6057 -1.3047,1.4144 -1.5884,2.4256l8.6481 0c-0.2838,-1.0111 -0.8204,-1.8197 -1.6052,-2.4256z"/>
   <polygon class="fil0" points="148.8391,23.1117 144.7606,23.1117 144.7606,31.9173 148.8391,31.9173 148.8391,35.7739 140.556,35.7739 140.556,23.1118 137.5698,23.1117 137.5698,19.2694 140.5583,19.2694 140.5583,14.4015 144.763,14.4015 144.763,19.2694 148.8415,19.2694 148.8415,23.1117 "/>
   <ellipse class="fil1" cx="21.3514" cy="21.3514" rx="21.3513" ry="21.3514"/>
   <polygon class="fil2" points="6.1599,24.3138 30.4658,36.1699 30.4658,30.2429 6.1599,18.387 "/>
   <polygon class="fil2" points="24.3888,21.3516 36.5429,15.4248 36.5429,27.2784 "/>
   <polygon class="fil2" points="30.4658,6.5333 12.237,15.4248 18.3141,18.387 30.4658,12.4602 "/>
  </g>
 </g>
</svg>
