<?xml version="1.0" encoding="UTF-8"?>
<!DOCTYPE svg PUBLIC "-//W3C//DTD SVG 1.1//EN" "http://www.w3.org/Graphics/SVG/1.1/DTD/svg11.dtd">
<!-- Creator: CorelDRAW Home & Student 2019 -->
<svg xmlns="http://www.w3.org/2000/svg" xml:space="preserve" width="59.4148mm" height="17.0462mm" version="1.1" style="shape-rendering:geometricPrecision; text-rendering:geometricPrecision; image-rendering:optimizeQuality; fill-rule:evenodd; clip-rule:evenodd"
viewBox="0 0 66.7261 19.1438"
 xmlns:xlink="http://www.w3.org/1999/xlink">
 <defs>
  <style type="text/css">
   <![CDATA[
    .fil0 {fill:black}
    .fil1 {fill:#0090DA}
    .fil2 {fill:white}
   ]]>
  </style>
 </defs>
 <g id="Layer_x0020_1">
  <metadata id="CorelCorpID_0Corel-Layer"/>
  <polygon class="fil0" points="26.7268,7.3138 24.877,7.3138 24.877,8.6385 26.7268,8.6385 26.7268,10.3611 24.877,10.3611 24.877,16.0375 22.992,16.0376 22.992,10.3611 21.8298,10.3611 21.8298,8.6385 22.992,8.6385 22.992,5.5837 26.7268,5.5837 "/>
  <path class="fil0" d="M33.7141 14.3226l0.8576 0 0 1.715 -2.5234 0 0 -0.7517c-0.5154,0.619 -1.2211,0.9281 -2.1192,0.9281 -0.7464,0 -1.3718,-0.2353 -1.8744,-0.7057 -0.5036,-0.4693 -0.7548,-1.0478 -0.7548,-1.7332 0,-0.6939 0.2512,-1.2734 0.7548,-1.7364 0.5036,-0.463 1.128,-0.6951 1.8744,-0.6951l1.8989 0 0 -0.9548 -4.0041 0 0 -1.7503 5.8893 0 0 5.684 0.001 0zm-3.352 0.3827c0.4341,0 0.7879,-0.0973 1.0596,-0.2908 0.2716,-0.1935 0.4073,-0.447 0.4073,-0.7581l0 -0.8576 -1.4669 0c-0.3219,0 -0.587,0.0897 -0.7977,0.2694 -0.2106,0.1796 -0.3154,0.4052 -0.3154,0.6768 0,0.2716 0.1048,0.4993 0.3154,0.6843 0.2107,0.184 0.477,0.2759 0.7977,0.2759z"/>
  <path class="fil0" d="M39.923 8.461c1.0253,0 1.8818,0.3699 2.5693,1.1088 0.6875,0.74 1.0307,1.6605 1.0307,2.764 0,1.1034 -0.3432,2.0262 -1.0307,2.7672 -0.6874,0.742 -1.5439,1.1131 -2.5693,1.1131 -0.988,0 -1.7909,-0.3828 -2.41,-1.1483l0 0.9708 -1.885 0 0 -10.4537 1.885 0 0 4.0256c0.619,-0.7645 1.422,-1.1473 2.41,-1.1473zm-1.8283 5.3365c0.3871,0.3924 0.8715,0.5881 1.4531,0.5881 0.5805,0 1.0649,-0.1957 1.453,-0.5881 0.3871,-0.3924 0.5806,-0.8789 0.5806,-1.4605 0,-0.5805 -0.1935,-1.0681 -0.5806,-1.4594 -0.387,-0.3924 -0.8714,-0.5881 -1.453,-0.5881 -0.5816,0 -1.065,0.1957 -1.4531,0.5881 -0.387,0.3924 -0.5805,0.8789 -0.5805,1.4594 -0.0011,0.5816 0.1924,1.0693 0.5805,1.4605z"/>
  <path class="fil0" d="M52.4168 12.3519c0,0.2694 -0.0192,0.4822 -0.0566,0.6383l-5.8818 0c0.1272,0.4726 0.3678,0.849 0.7195,1.1301 0.3519,0.2812 0.7763,0.4213 1.2724,0.4213 0.3967,0 0.7569,-0.0823 1.0809,-0.2481 0.324,-0.1657 0.5593,-0.3775 0.7057,-0.6383l2.0122 0.0001c-0.2694,0.7655 -0.7505,1.3835 -1.4423,1.8529 -0.6918,0.4704 -1.4873,0.7056 -2.3844,0.7056 -1.1345,0 -2.0818,-0.3709 -2.842,-1.1131 -0.7602,-0.742 -1.1408,-1.6647 -1.1408,-2.7671 0,-1.1034 0.3806,-2.0241 1.1408,-2.764 0.7602,-0.7399 1.7065,-1.1088 2.8387,-1.1088 1.1313,0 2.0775,0.3699 2.8387,1.1088 0.7582,0.74 1.1388,1.667 1.1388,2.7821zm-2.7532 -1.8316c-0.3519,-0.2716 -0.7602,-0.4073 -1.2264,-0.4073 -0.4652,0 -0.8715,0.1358 -1.219,0.4073 -0.3475,0.2716 -0.5849,0.6341 -0.712,1.0875l3.8769 0c-0.1283,-0.4534 -0.3678,-0.8158 -0.7195,-1.0875z"/>
  <path class="fil0" d="M61.24 12.3519c0,0.2694 -0.0192,0.4822 -0.0566,0.6383l-5.8818 0c0.1272,0.4726 0.3678,0.849 0.7197,1.1301 0.3517,0.2812 0.7763,0.4213 1.2723,0.4213 0.3967,0 0.7571,-0.0823 1.0811,-0.2481 0.3239,-0.1657 0.5592,-0.3775 0.7056,-0.6383l2.0123 0.0001c-0.2694,0.7655 -0.7507,1.3835 -1.4425,1.8529 -0.6918,0.4704 -1.4873,0.7056 -2.3844,0.7056 -1.1344,0 -2.0807,-0.3709 -2.842,-1.1131 -0.7602,-0.742 -1.1408,-1.6647 -1.1408,-2.7671 0,-1.1034 0.3806,-2.0241 1.1408,-2.764 0.7602,-0.7399 1.7066,-1.1088 2.8389,-1.1088 1.1313,0 2.0774,0.3699 2.8387,1.1088 0.7581,0.74 1.1387,1.667 1.1387,2.7821zm-2.7532 -1.8316c-0.3519,-0.2716 -0.7602,-0.4073 -1.2264,-0.4073 -0.4652,0 -0.8715,0.1358 -1.219,0.4073 -0.3475,0.2716 -0.5849,0.6341 -0.7121,1.0875l3.877 0c-0.1272,-0.4534 -0.3678,-0.8158 -0.7195,-1.0875z"/>
  <polygon class="fil0" points="66.7251,10.3611 64.8968,10.3611 64.8968,14.3086 66.7251,14.3086 66.7251,16.0376 63.0117,16.0376 63.0117,10.3611 61.673,10.3611 61.673,8.6385 63.0128,8.6385 63.0128,6.4562 64.8978,6.4562 64.8978,8.6385 66.7261,8.6385 66.7261,10.3611 "/>
  <circle class="fil1" cx="9.5719" cy="9.5719" r="9.5719"/>
  <polygon class="fil2" points="2.7615,10.8999 13.6579,16.215 13.6579,13.558 2.7615,8.2429 "/>
  <polygon class="fil2" points="10.9336,9.572 16.3823,6.915 16.3823,12.229 "/>
  <polygon class="fil2" points="13.6579,2.9289 5.4859,6.915 8.2102,8.2429 13.6579,5.586 "/>
 </g>
</svg>
